<svg t="1708674376318" class="icon" viewBox="0 0 1024 1024" version="1.1" xmlns="http://www.w3.org/2000/svg" p-id="10933" width="200" height="200"><path d="M549.4 260.3m-196.1 0a196.1 196.1 0 1 0 392.2 0 196.1 196.1 0 1 0-392.2 0Z" fill="#D6DEEA" p-id="10934"></path><path d="M717.5 619.7h-411c-112.6 0-203.9-91.3-203.9-203.9 0-112.6 91.3-203.9 203.9-203.9h411.1c112.6 0 203.9 91.3 203.9 203.9-0.1 112.6-91.3 203.9-204 203.9z" fill="#D6DEEA" p-id="10935"></path><path d="M539.6 778.9c0 18.2-14.8 33-33 33s-33-14.8-33-33c0-13.5 18.1-60.1 27.5-75.6 2.5-4.1 8.5-4.1 11 0 9.4 15.6 27.5 62.1 27.5 75.6zM333.6 778.9c0 18.2-14.8 33-33 33s-33-14.8-33-33c0-13.5 18.1-60.1 27.5-75.6 2.5-4.1 8.5-4.1 11 0 9.4 15.6 27.5 62.1 27.5 75.6zM745.4 778.9c0 18.2-14.8 33-33 33s-33-14.8-33-33c0-13.5 18.1-60.1 27.5-75.6 2.5-4.1 8.5-4.1 11 0 9.4 15.6 27.5 62.1 27.5 75.6zM642.6 933.8c0 14.4-11.6 26-26 26s-26-11.6-26-26c0-10.6 14.3-47.4 21.7-59.6 2-3.3 6.7-3.3 8.6 0 7.4 12.2 21.7 48.9 21.7 59.6zM422.7 884.1c0 14.4-11.6 26-26 26s-26-11.6-26-26c0-10.6 14.3-47.4 21.7-59.6 2-3.3 6.7-3.3 8.6 0 7.5 12.2 21.7 49 21.7 59.6z" fill="#06F4FB" p-id="10936"></path><path d="M745.7 248.7c20.8 34.1 33.5 73.7 33.5 116.5 0 92.4-56 171.7-135.8 206 21.1 9.4 44.4 14.9 69 14.9 94.1 0 170.4-76.3 170.4-170.4 0-82.6-59-151.5-137.1-167z" opacity=".2" p-id="10937"></path></svg>